<svg version="1.0" xmlns="http://www.w3.org/2000/svg" width="512.000000pt" height="512.000000pt"
  viewBox="0 0 512.000000 512.000000" preserveAspectRatio="xMidYMid meet">

  <g transform="translate(0.000000,512.000000) scale(0.100000,-0.100000)" fill="#000000" stroke="none">
    <path d="M3670 4419 c-41 -5 -97 -16 -125 -24 -29 -8 -67 -12 -87 -9 -108 18
-283 -69 -424 -210 -152 -153 -264 -369 -308 -596 -9 -47 -19 -95 -22 -107 -4
-22 -9 -23 -98 -23 -229 0 -1038 -44 -1290 -71 -54 -6 -99 -9 -101 -7 -2 2
-21 50 -43 108 -43 116 -106 246 -160 330 -177 279 -483 472 -741 469 -90 -1
-126 -10 -126 -29 0 -11 31 -21 107 -36 124 -26 197 -51 288 -101 274 -150
459 -448 575 -928 19 -77 77 -376 130 -665 118 -644 135 -723 176 -801 56
-104 165 -180 311 -215 l68 -17 -55 -59 c-74 -79 -100 -161 -92 -286 4 -75 10
-95 50 -176 52 -103 125 -186 203 -228 144 -78 337 -47 448 72 61 66 88 127
94 215 5 87 -24 174 -69 207 -16 12 -29 28 -29 35 0 22 -38 90 -72 129 l-33
37 35 -6 c154 -27 802 -41 1121 -24 l146 8 -31 -63 c-76 -153 -31 -366 112
-529 49 -55 140 -106 218 -120 154 -28 333 61 401 200 24 48 28 68 28 141 0
71 -4 93 -25 135 -14 28 -35 54 -47 60 -14 6 -23 19 -23 31 0 29 -72 137 -109
165 -37 27 -39 39 -8 39 56 0 245 52 315 87 88 43 185 130 244 216 156 230
292 694 328 1124 6 70 16 185 22 254 24 271 -22 482 -153 704 -164 278 -465
487 -790 550 -102 19 -267 26 -359 14z m300 -68 c432 -99 750 -396 857 -800
36 -135 38 -346 5 -471 -83 -306 -275 -538 -565 -680 -228 -112 -465 -144
-697 -95 -454 97 -730 477 -730 1005 0 439 207 803 573 1004 37 20 67 41 67
46 0 26 365 20 490 -9z m-1273 -1105 c7 -568 341 -994 858 -1097 103 -21 349
-18 455 5 97 21 232 67 305 103 150 76 310 202 404 318 41 52 61 70 61 57 0
-37 -71 -302 -116 -434 -65 -189 -143 -336 -218 -413 -125 -126 -241 -158
-776 -212 -255 -26 -1054 -26 -1325 0 -331 31 -574 72 -672 113 -52 22 -108
79 -132 133 -12 28 -70 302 -136 647 -64 330 -132 661 -151 738 -19 76 -33
141 -30 143 7 7 641 19 1091 21 l380 2 2 -124z m-537 -1851 c67 -34 195 -154
180 -169 -5 -5 -10 -40 -10 -78 0 -191 -73 -284 -232 -296 -83 -6 -139 18
-199 86 -90 103 -128 234 -99 342 14 53 82 124 132 139 60 19 167 7 228 -24z
m1827 1 c66 -33 197 -154 184 -170 -4 -6 -11 -53 -13 -103 -10 -174 -80 -259
-222 -270 -90 -8 -141 13 -203 81 -26 29 -61 79 -78 112 -27 53 -30 68 -30
155 0 87 2 99 27 136 17 26 45 50 80 68 47 23 62 26 128 22 56 -3 88 -11 127
-31z" />
    <path d="M3902 4013 c-15 -27 -40 -203 -57 -400 -8 -93 -15 -171 -15 -174 0
-3 -127 -11 -282 -18 -320 -14 -493 -27 -517 -41 -28 -16 47 -38 181 -54 146
-18 410 -36 525 -36 l82 0 -6 -232 c-6 -244 4 -385 33 -440 15 -30 44 -37 63
-15 34 42 61 279 61 537 l0 147 142 7 c238 12 437 41 501 73 31 16 37 53 11
74 -24 19 -179 23 -433 10 -118 -6 -216 -10 -217 -8 -1 1 -7 98 -13 216 -16
306 -32 404 -59 354z" />
  </g>
</svg>
