<?xml version="1.0" standalone="no"?>
<!DOCTYPE svg PUBLIC "-//W3C//DTD SVG 20010904//EN"
 "http://www.w3.org/TR/2001/REC-SVG-20010904/DTD/svg10.dtd">
<svg version="1.0" xmlns="http://www.w3.org/2000/svg"
 width="512.000000pt" height="512.000000pt" viewBox="0 0 512.000000 512.000000"
 preserveAspectRatio="xMidYMid meet">

<g transform="translate(0.000000,512.000000) scale(0.100000,-0.100000)"
fill="#000000" stroke="none">
<path d="M82 4893 c-73 -36 -102 -129 -62 -200 41 -74 54 -77 330 -83 240 -5
246 -6 302 -32 65 -30 138 -98 166 -155 10 -21 142 -447 291 -948 150 -500
280 -923 289 -939 25 -44 65 -68 119 -73 39 -4 55 0 82 19 55 37 75 71 74 125
-1 70 -543 1864 -591 1958 -49 96 -172 218 -269 268 -127 66 -193 77 -462 77
-197 0 -241 -3 -269 -17z"/>
<path d="M1769 4130 c-48 -25 -84 -96 -75 -148 6 -41 29 -76 70 -106 27 -21
32 -21 1520 -26 1613 -5 1518 -2 1531 -59 7 -35 -375 -1118 -404 -1142 -14
-11 -328 -54 -1280 -172 -1352 -169 -1329 -165 -1440 -236 -109 -70 -203 -201
-236 -328 -20 -75 -19 -199 1 -277 38 -147 152 -288 285 -351 143 -68 102 -66
1288 -63 1068 3 1070 3 1098 24 91 68 96 185 10 248 -28 21 -36 21 -1115 26
-1077 5 -1087 5 -1132 26 -157 73 -199 268 -86 401 59 70 10 61 1383 233 975
122 1281 163 1324 179 67 26 126 74 167 138 17 28 116 289 233 618 l203 570 0
90 c1 77 -3 98 -26 148 -38 80 -114 158 -191 193 l-62 29 -1515 2 c-1481 2
-1516 2 -1551 -17z"/>
<path d="M2042 3290 c-96 -59 -95 -183 1 -254 25 -19 42 -21 152 -21 110 0
127 2 152 21 90 67 98 170 18 244 -25 24 -34 25 -158 28 -118 2 -135 1 -165
-18z"/>
<path d="M2726 3291 c-45 -30 -66 -70 -66 -126 0 -60 25 -106 72 -132 31 -17
79 -18 755 -18 716 0 722 0 750 21 90 67 98 170 18 244 l-27 25 -736 3 c-709
2 -738 1 -766 -17z"/>
<path d="M2015 1007 c-155 -52 -258 -168 -287 -326 -32 -172 62 -351 229 -433
63 -31 74 -33 168 -33 128 1 191 24 275 102 104 96 153 232 130 361 -24 137
-107 248 -229 306 -56 26 -80 31 -156 33 -55 2 -105 -2 -130 -10z m180 -309
c84 -74 16 -209 -91 -183 -52 13 -88 65 -80 115 12 79 113 118 171 68z"/>
<path d="M3523 1006 c-105 -34 -204 -123 -251 -224 -35 -76 -42 -205 -17 -283
37 -116 111 -199 224 -253 60 -28 75 -31 166 -31 92 0 106 3 167 32 317 150
316 588 -1 740 -46 22 -72 27 -151 30 -61 2 -110 -2 -137 -11z m170 -297 c31
-14 57 -59 57 -99 0 -47 -55 -100 -105 -100 -51 0 -105 53 -105 102 1 82 78
131 153 97z"/>
</g>
</svg>
